<svg width="64" height="64" viewBox="0 0 64 64" xmlns="http://www.w3.org/2000/svg">
<defs>
    <style type="text/css">
        .cloud-fill {
            fill: #808080;
        }

        .cloud-stroke {
            stroke: currentColor;
            stroke-width: 1.5;
            stroke-linejoin: round;
        }

        .cloud-text {
            font: italic 13px sans-serif;
        }
    </style>
    
</defs>
<g id="cloud-symbol" class="cloud-fill cloud-stroke">
    <path d="m47.7 35.4
            c0-4.6-3.7-8.2-8.2-8.2-1 0-1.9 0.2-2.8 0.5-0.3-3.4-3.1-6.2-6.6-6.2-3.7 0-6.7 3-6.7 6.7 0 0.8 0.2 1.6 0.4 2.3-0.3-0.1-0.7-0.1-1-0.1-3.7 0-6.7 3-6.7 6.7 0 3.6 2.9 6.6 6.5 6.7
            h17.2
            c4.4-0.5 7.9-4 7.9-8.4
            z" />
    <text x="26" y="40" class="small">4</text> 
</g>
</svg>